<?xml version="1.0" encoding="UTF-8"?>
<svg xmlns="http://www.w3.org/2000/svg" xmlns:xlink="http://www.w3.org/1999/xlink" width="75pt" height="75pt" viewBox="0 0 75 75" version="1.1">
<g id="surface1">
<path style=" stroke:none;fill-rule:nonzero;fill:rgb(44.705882%,53.72549%,85.490196%);fill-opacity:1;" d="M 11.25 0 L 63.75 0 C 69.964844 0 75 5.035156 75 11.25 L 75 63.75 C 75 69.964844 69.964844 75 63.75 75 L 11.25 75 C 5.035156 75 0 69.964844 0 63.75 L 0 11.25 C 0 5.035156 5.035156 0 11.25 0 Z M 11.25 0 "/>
<path style=" stroke:none;fill-rule:nonzero;fill:rgb(100%,100%,100%);fill-opacity:1;" d="M 50.683594 57.421875 L 47.609375 53.757812 C 53.613281 52.148438 55.957031 48.046875 55.957031 48.046875 C 48.339844 55.226562 27.539062 55.515625 19.484375 48.046875 C 19.484375 48.046875 21.53125 51.855469 27.6875 53.757812 L 24.316406 57.421875 C 14.0625 57.273438 10.109375 50.390625 10.109375 50.390625 C 10.109375 35.15625 16.84375 23 16.84375 23 C 23.730469 18.164062 30.03125 18.164062 30.03125 18.164062 L 30.46875 18.75 C 21.972656 21.09375 18.3125 24.902344 18.3125 24.902344 C 28.273438 18.164062 48.78125 18.75 56.835938 24.902344 C 56.984375 24.757812 52 20.800781 44.238281 18.75 L 44.96875 18.164062 C 44.96875 18.164062 51.269531 18.164062 58.15625 23 C 58.15625 23 64.890625 35.15625 64.890625 50.390625 C 64.890625 50.390625 60.9375 57.273438 50.683594 57.421875 Z M 50.683594 57.421875 "/>
<path style=" stroke:none;fill-rule:nonzero;fill:rgb(44.705882%,53.72549%,85.490196%);fill-opacity:1;" d="M 33.546875 40.867188 C 33.546875 38.039062 31.378906 35.742188 28.710938 35.742188 C 26.042969 35.742188 23.875 38.039062 23.875 40.867188 C 23.875 43.699219 26.042969 45.996094 28.710938 45.996094 C 31.378906 45.996094 33.546875 43.699219 33.546875 40.867188 Z M 33.546875 40.867188 "/>
<path style=" stroke:none;fill-rule:nonzero;fill:rgb(44.705882%,53.72549%,85.490196%);fill-opacity:1;" d="M 50.539062 40.867188 C 50.539062 38.039062 48.371094 35.742188 45.703125 35.742188 C 43.035156 35.742188 40.867188 38.039062 40.867188 40.867188 C 40.867188 43.699219 43.035156 45.996094 45.703125 45.996094 C 48.371094 45.996094 50.539062 43.699219 50.539062 40.867188 Z M 50.539062 40.867188 "/>
</g>
</svg>
