<?xml version="1.0" encoding="UTF-8"?>
<svg xmlns="http://www.w3.org/2000/svg" xmlns:xlink="http://www.w3.org/1999/xlink" width="75pt" height="75pt" viewBox="0 0 75 75" version="1.1">
<g id="surface1">
<path style=" stroke:none;fill-rule:nonzero;fill:rgb(10.588235%,9.411765%,9.019608%);fill-opacity:1;" d="M 11.25 0 L 63.75 0 C 69.964844 0 75 5.035156 75 11.25 L 75 63.75 C 75 69.964844 69.964844 75 63.75 75 L 11.25 75 C 5.035156 75 0 69.964844 0 63.75 L 0 11.25 C 0 5.035156 5.035156 0 11.25 0 Z M 11.25 0 "/>
<path style=" stroke:none;fill-rule:nonzero;fill:rgb(100%,100%,100%);fill-opacity:1;" d="M 49.070312 73.09375 C 51.125 73.09375 50.828125 75.585938 50.828125 75.585938 L 24.171875 75.585938 C 24.171875 75.585938 23.875 73.09375 25.929688 73.09375 C 27.832031 73.09375 28.273438 72.21875 28.273438 71.335938 L 28.125 64.015625 C 17.726562 66.359375 15.527344 59.914062 15.527344 59.914062 C 13.769531 55.515625 11.425781 54.492188 11.425781 54.492188 C 7.910156 52.148438 11.570312 52.148438 11.570312 52.148438 C 15.382812 52.441406 17.429688 55.957031 17.429688 55.957031 C 20.65625 61.671875 26.074219 60.058594 28.273438 59.179688 C 28.5625 56.6875 29.589844 55.078125 30.617188 54.054688 C 22.265625 53.171875 13.625 49.953125 13.625 35.59375 C 13.625 31.492188 15.085938 28.125 17.429688 25.488281 C 16.992188 24.609375 15.820312 20.800781 17.871094 15.671875 C 17.871094 15.671875 20.945312 14.648438 28.125 19.484375 C 34.277344 17.726562 40.722656 17.726562 46.875 19.484375 C 54.054688 14.648438 57.128906 15.671875 57.128906 15.671875 C 59.179688 20.800781 58.007812 24.609375 57.570312 25.488281 C 59.914062 28.125 61.375 31.492188 61.375 35.59375 C 61.375 49.953125 52.585938 53.171875 44.238281 54.054688 C 45.703125 55.226562 46.875 57.570312 46.875 61.085938 L 46.726562 71.335938 C 46.726562 72.21875 47.167969 73.09375 49.070312 73.09375 Z M 49.070312 73.09375 "/>
</g>
</svg>
