<?xml version="1.0" encoding="UTF-8"?>
<svg xmlns="http://www.w3.org/2000/svg" xmlns:xlink="http://www.w3.org/1999/xlink" width="75pt" height="75pt" viewBox="0 0 75 75" version="1.1">
<g id="surface1">
<path style=" stroke:none;fill-rule:nonzero;fill:rgb(100%,26.666667%,0%);fill-opacity:1;" d="M 11.25 0 L 63.75 0 C 69.964844 0 75 5.035156 75 11.25 L 75 63.75 C 75 69.964844 69.964844 75 63.75 75 L 11.25 75 C 5.035156 75 0 69.964844 0 63.75 L 0 11.25 C 0 5.035156 5.035156 0 11.25 0 Z M 11.25 0 "/>
<path style=" stroke:none;fill-rule:nonzero;fill:rgb(100%,100%,100%);fill-opacity:1;" d="M 61.816406 44.96875 C 61.816406 35.503906 50.929688 27.832031 37.5 27.832031 C 24.070312 27.832031 13.183594 35.503906 13.183594 44.96875 C 13.183594 54.4375 24.070312 62.109375 37.5 62.109375 C 50.929688 62.109375 61.816406 54.4375 61.816406 44.96875 Z M 61.816406 44.96875 "/>
<path style=" stroke:none;fill-rule:nonzero;fill:rgb(100%,100%,100%);fill-opacity:1;" d="M 21.679688 37.5 C 21.679688 40.898438 18.925781 43.652344 15.527344 43.652344 C 12.128906 43.652344 9.375 40.898438 9.375 37.5 C 9.375 34.101562 12.128906 31.347656 15.527344 31.347656 C 18.925781 31.347656 21.679688 34.101562 21.679688 37.5 Z M 21.679688 37.5 "/>
<path style=" stroke:none;fill-rule:nonzero;fill:rgb(100%,100%,100%);fill-opacity:1;" d="M 65.773438 37.5 C 65.773438 40.898438 63.015625 43.652344 59.617188 43.652344 C 56.222656 43.652344 53.46875 40.898438 53.46875 37.5 C 53.46875 34.101562 56.222656 31.347656 59.617188 31.347656 C 63.015625 31.347656 65.773438 34.101562 65.773438 37.5 Z M 65.773438 37.5 "/>
<path style=" stroke:none;fill-rule:nonzero;fill:rgb(100%,100%,100%);fill-opacity:1;" d="M 59.617188 16.699219 C 59.617188 19.289062 57.519531 21.386719 54.929688 21.386719 C 52.34375 21.386719 50.242188 19.289062 50.242188 16.699219 C 50.242188 14.109375 52.34375 12.011719 54.929688 12.011719 C 57.519531 12.011719 59.617188 14.109375 59.617188 16.699219 Z M 59.617188 16.699219 "/>
<path style="fill:none;stroke-width:16;stroke-linecap:round;stroke-linejoin:round;stroke:rgb(100%,100%,100%);stroke-opacity:1;stroke-miterlimit:4;" d="M 256 196 L 278.986667 94.986667 L 352 110 " transform="matrix(0.146484,0,0,0.146484,0,0)"/>
<path style="fill:none;stroke-width:13;stroke-linecap:round;stroke-linejoin:round;stroke:rgb(100%,26.666667%,0%);stroke-opacity:1;stroke-miterlimit:4;" d="M 190.986667 358.986667 C 224 384 288 385.013333 321.013333 358.986667 " transform="matrix(0.146484,0,0,0.146484,0,0)"/>
<path style=" stroke:none;fill-rule:nonzero;fill:rgb(100%,26.666667%,0%);fill-opacity:1;" d="M 32.519531 42.039062 C 32.519531 44.550781 30.488281 46.582031 27.976562 46.582031 C 25.46875 46.582031 23.4375 44.550781 23.4375 42.039062 C 23.4375 39.53125 25.46875 37.5 27.976562 37.5 C 30.488281 37.5 32.519531 39.53125 32.519531 42.039062 Z M 32.519531 42.039062 "/>
<path style=" stroke:none;fill-rule:nonzero;fill:rgb(100%,26.666667%,0%);fill-opacity:1;" d="M 51.5625 42.039062 C 51.5625 44.550781 49.53125 46.582031 47.023438 46.582031 C 44.511719 46.582031 42.480469 44.550781 42.480469 42.039062 C 42.480469 39.53125 44.511719 37.5 47.023438 37.5 C 49.53125 37.5 51.5625 39.53125 51.5625 42.039062 Z M 51.5625 42.039062 "/>
</g>
</svg>
