<?xml version="1.0" encoding="UTF-8"?>
<svg xmlns="http://www.w3.org/2000/svg" xmlns:xlink="http://www.w3.org/1999/xlink" width="75pt" height="75pt" viewBox="0 0 75 75" version="1.1">
<g id="surface1">
<path style=" stroke:none;fill-rule:nonzero;fill:rgb(13.72549%,12.156863%,12.54902%);fill-opacity:1;" d="M 11.25 0 L 63.75 0 C 69.964844 0 75 5.035156 75 11.25 L 75 63.75 C 75 69.964844 69.964844 75 63.75 75 L 11.25 75 C 5.035156 75 0 69.964844 0 63.75 L 0 11.25 C 0 5.035156 5.035156 0 11.25 0 Z M 11.25 0 "/>
<path style=" stroke:none;fill-rule:nonzero;fill:rgb(92.156863%,92.156863%,92.156863%);fill-opacity:1;" d="M 26.808594 41.015625 L 32.8125 45.117188 L 36.769531 51.121094 L 49.511719 42.042969 L 35.742188 27.980469 "/>
<path style=" stroke:none;fill-rule:nonzero;fill:rgb(92.156863%,92.156863%,92.156863%);fill-opacity:1;" d="M 56.980469 27.832031 C 56.980469 31.796875 53.769531 35.011719 49.804688 35.011719 C 45.839844 35.011719 42.628906 31.796875 42.628906 27.832031 C 42.628906 23.867188 45.839844 20.652344 49.804688 20.652344 C 53.769531 20.652344 56.980469 23.867188 56.980469 27.832031 Z M 56.980469 27.832031 "/>
<path style="fill:none;stroke-width:19;stroke-linecap:butt;stroke-linejoin:miter;stroke:rgb(92.156863%,92.156863%,92.156863%);stroke-opacity:1;stroke-miterlimit:4;" d="M 242.00062 352.000901 C 242.00062 386.80099 213.787214 414.987729 178.987125 414.987729 C 144.187036 414.987729 116.000297 386.80099 116.000297 352.000901 C 116.000297 317.200812 144.187036 288.987406 178.987125 288.987406 C 213.787214 288.987406 242.00062 317.200812 242.00062 352.000901 Z M 242.00062 352.000901 " transform="matrix(0.146484,0,0,0.146484,0,0)"/>
<path style="fill:none;stroke-width:80;stroke-linecap:round;stroke-linejoin:miter;stroke:rgb(92.156863%,92.156863%,92.156863%);stroke-opacity:1;stroke-miterlimit:4;" d="M -18.000046 270.98736 L 176.98712 352.000901 " transform="matrix(0.146484,0,0,0.146484,0,0)"/>
<path style="fill:none;stroke-width:32;stroke-linecap:butt;stroke-linejoin:miter;stroke:rgb(92.156863%,92.156863%,92.156863%);stroke-opacity:1;stroke-miterlimit:4;" d="M 420.987744 190.000486 C 420.987744 234.747268 384.747652 270.98736 340.00087 270.98736 C 295.254089 270.98736 258.98733 234.747268 258.98733 190.000486 C 258.98733 145.253705 295.254089 108.986946 340.00087 108.986946 C 384.747652 108.986946 420.987744 145.253705 420.987744 190.000486 Z M 420.987744 190.000486 " transform="matrix(0.146484,0,0,0.146484,0,0)"/>
</g>
</svg>
